
<svg width="32" height="32" viewBox="0 0 32 32" fill="none" xmlns="http://www.w3.org/2000/svg">
  <circle cx="16" cy="16" r="16" fill="#FF0420"/>
  <path d="M11.5 23.9C9.7 23.9 8.2 23.3 7.2 22.1C6.2 20.9 5.6 19.2 5.6 17.2C5.6 15.1 6.1 13.4 7.2 12.2C8.2 11 9.7 10.4 11.5 10.4C12.9 10.4 14.1 10.7 14.9 11.4C15.7 12.1 16.3 12.9 16.5 14.1H13.3C13.1 13.7 12.9 13.4 12.6 13.2C12.3 13 12 12.9 11.5 12.9C10.8 12.9 10.2 13.2 9.8 13.9C9.4 14.5 9.2 15.5 9.2 16.8V17.7C9.2 19 9.4 20 9.8 20.6C10.2 21.2 10.8 21.6 11.6 21.6C12.1 21.6 12.5 21.5 12.8 21.2C13.1 20.9 13.3 20.6 13.4 20.1H16.5C16.3 21.2 15.8 22.1 14.9 22.8C14 23.6 12.9 23.9 11.5 23.9ZM20.6 23.7H17.5V10.5H20.6V23.7Z" fill="white"/>
</svg>
