
<svg width="32" height="32" viewBox="0 0 32 32" fill="none" xmlns="http://www.w3.org/2000/svg">
  <circle cx="16" cy="16" r="16" fill="#8247E5"/>
  <path d="M21.32 12.06C20.91 11.81 20.38 11.81 19.9 12.06L16.98 13.75L14.95 14.84L12.08 16.52C11.67 16.77 11.14 16.77 10.65 16.52L8.34 15.19C7.93 14.94 7.62 14.46 7.62 13.92V11.33C7.62 10.79 7.86 10.31 8.34 10.06L10.65 8.81C11.06 8.56 11.6 8.56 12.08 8.81L14.39 10.14C14.8 10.39 15.11 10.88 15.11 11.41V13.1L17.14 11.93V10.22C17.14 9.69 16.9 9.2 16.42 8.95L12.12 6.52C11.71 6.27 11.17 6.27 10.68 6.52L6.26 8.95C5.78 9.2 5.54 9.69 5.54 10.22V15.02C5.54 15.56 5.78 16.05 6.26 16.3L10.68 18.73C11.09 18.98 11.63 18.98 12.12 18.73L14.95 17.14L16.98 16.02L19.82 14.43C20.22 14.18 20.76 14.18 21.25 14.43L23.56 15.68C23.97 15.93 24.28 16.42 24.28 16.95V19.54C24.28 20.08 24.04 20.57 23.56 20.82L21.25 22.14C20.84 22.39 20.3 22.39 19.82 22.14L17.51 20.9C17.1 20.65 16.79 20.16 16.79 19.62V17.95L14.76 19.12V20.81C14.76 21.35 15 21.83 15.48 22.08L19.9 24.52C20.3 24.77 20.84 24.77 21.33 24.52L25.75 22.08C26.16 21.83 26.47 21.35 26.47 20.81V16.01C26.47 15.47 26.23 14.98 25.75 14.73L21.32 12.06Z" fill="white"/>
</svg>
